<svg id="Capa_1" enable-background="new 0 0 512 512" height="512" viewBox="0 0 512 512" width="512" xmlns="http://www.w3.org/2000/svg"><g><path d="m493.918 439.351h-32.237v-96.646c0-7.273-5.918-13.191-13.191-13.191h-30.022c13.387-11.457 21.896-28.458 21.896-47.419 0-18.96-8.509-35.961-21.896-47.418h30.022c7.273 0 13.191-5.918 13.191-13.191v-98.455c0-7.273-5.918-13.191-13.191-13.191h-72.656c13.387-11.457 21.896-28.458 21.896-47.419-.001-34.42-28.001-62.421-62.419-62.421h-130.957c-4.143 0-7.5 3.357-7.5 7.5s3.357 7.5 7.5 7.5h130.956c26.146 0 47.419 21.272 47.419 47.419s-21.272 47.419-47.419 47.419h-303.437v-16.976h303.438c16.786 0 30.443-13.657 30.443-30.443s-13.657-30.443-30.443-30.443h-303.438v-16.976h142.495c4.143 0 7.5-3.357 7.5-7.5s-3.357-7.5-7.5-7.5h-144.304c-7.273 0-13.191 5.918-13.191 13.191v98.455c0 7.273 5.918 13.191 13.191 13.191h72.656c-13.387 11.457-21.896 28.458-21.896 47.419s8.509 35.962 21.896 47.419h-30.022c-7.273 0-13.19 5.917-13.19 13.19v98.456c0 7.273 5.917 13.19 13.19 13.19h30.022c-13.387 11.457-21.896 28.458-21.896 47.419s8.509 35.962 21.896 47.419h-84.638c-9.971.002-18.082 8.113-18.082 18.084v47.067c0 4.143 3.357 7.5 7.5 7.5h44.514c4.143 0 7.5-3.357 7.5-7.5s-3.357-7.5-7.5-7.5h-37.014v-39.567c0-1.699 1.383-3.082 3.082-3.082h475.836c1.699 0 3.082 1.383 3.082 3.082v39.567h-414.999c-4.143 0-7.5 3.357-7.5 7.5s3.357 7.5 7.5 7.5h422.499c4.143 0 7.5-3.357 7.5-7.5v-47.067c0-9.971-8.111-18.082-18.082-18.082zm-158.606-392.375c8.516 0 15.443 6.928 15.443 15.443s-6.928 15.443-15.443 15.443h-303.439v-30.886zm111.369 360.399h-303.439c-8.516 0-15.443-6.928-15.443-15.443s6.928-15.443 15.443-15.443h303.438v30.886zm0-219.675h-303.439c-8.516 0-15.443-6.928-15.443-15.443s6.928-15.443 15.443-15.443h303.438v30.886zm-350.857-15.443c0-26.146 21.272-47.419 47.419-47.419h303.438v16.976h-303.439c-16.786 0-30.443 13.657-30.443 30.443s13.657 30.443 30.443 30.443h303.438v16.976h-303.437c-26.146 0-47.419-21.273-47.419-47.419zm-21.316 157.256v-16.975h181.751c4.143 0 7.5-3.357 7.5-7.5s-3.357-7.5-7.5-7.5h-181.751v-30.887h303.438c8.516 0 15.443 6.928 15.443 15.443s-6.928 15.443-15.443 15.443h-91.699c-4.143 0-7.5 3.357-7.5 7.5s3.357 7.5 7.5 7.5h91.699c16.786 0 30.443-13.657 30.443-30.443s-13.657-30.443-30.443-30.443h-303.438v-16.976h303.438c26.146 0 47.418 21.271 47.418 47.418s-21.271 47.419-47.418 47.419h-303.438zm68.735 109.838c-26.146 0-47.419-21.272-47.419-47.419s21.272-47.419 47.419-47.419h303.438v16.976h-303.439c-16.786 0-30.443 13.657-30.443 30.443s13.657 30.443 30.443 30.443h303.438v16.976z"/></g></svg>