<svg id="Capa_1" enable-background="new 0 0 512 512" height="512" viewBox="0 0 512 512" width="512" xmlns="http://www.w3.org/2000/svg"><g><path d="m428.703 386.131-111.361-182.046v-180.715h-122.684v180.716l-111.361 182.045c-31.704 51.829 5.595 118.369 66.351 118.369h212.704c60.756 0 98.055-66.54 66.351-118.369z" fill="#d3e1f4"/><path d="m428.7 386.13-111.36-182.04.001-180.72h-122.683v47.373h49.045c14.556 0 26.356 11.8 26.356 26.356v106.991l111.36 182.04c31.71 51.83-5.59 118.37-66.35 118.37h47.28c60.761 0 98.061-66.54 66.351-118.37z" fill="#b3cbea"/><path d="m364.949 281.91h-217.897l-63.755 104.221c-31.704 51.829 5.595 118.369 66.351 118.369h212.704c60.757 0 98.055-66.54 66.351-118.369z" fill="#31a7fb"/><path d="m364.945 281.91h-47.28l63.755 104.22c31.71 51.83-5.59 118.37-66.35 118.37h47.28c60.76 0 98.06-66.54 66.35-118.37z" fill="#1c96f9"/><path d="m323.609 39.757h-135.218c-8.907 0-16.128-7.221-16.128-16.128 0-8.907 7.221-16.128 16.128-16.128h135.217c8.907 0 16.128 7.221 16.128 16.128.001 8.907-7.22 16.128-16.127 16.128z" fill="#eaf6ff"/><path d="m339.74 23.63c0 4.45-1.8 8.49-4.72 11.41s-6.96 4.72-11.41 4.72h-34.19c4.46 0 8.49-1.8 11.41-4.72 2.91-2.92 4.72-6.96 4.72-11.41 0-8.91-7.22-16.13-16.13-16.13h34.19c8.91 0 16.13 7.22 16.13 16.13z" fill="#d3e1f4"/><g><path d="m435.1 382.218-26.351-43.077c-2.161-3.534-6.777-4.646-10.312-2.484-3.533 2.162-4.646 6.778-2.483 10.312l26.351 43.077c13.453 21.993 13.959 48.55 1.354 71.039-12.607 22.488-35.525 35.915-61.307 35.915h-212.703c-25.782 0-48.7-13.427-61.306-35.916s-12.101-49.046 1.353-71.039l61.56-100.635h209.49l17.574 28.729c1.414 2.313 3.879 3.587 6.404 3.587 1.334 0 2.686-.356 3.907-1.103 3.533-2.162 4.646-6.778 2.483-10.312l-66.272-108.339v-154.747c12.457-.644 22.395-10.981 22.395-23.596 0-13.029-10.6-23.629-23.628-23.629h-135.218c-13.028 0-23.628 10.6-23.628 23.628 0 12.615 9.938 22.953 22.395 23.596v63.868c0 4.142 3.358 7.5 7.5 7.5s7.5-3.358 7.5-7.5v-63.835h16.248c4.142 0 7.5-3.358 7.5-7.5s-3.358-7.5-7.5-7.5h-30.015c-4.757 0-8.628-3.871-8.628-8.628s3.871-8.629 8.628-8.629h135.217c4.758 0 8.628 3.871 8.628 8.628s-3.87 8.628-8.628 8.628h-71.378c-4.142 0-7.5 3.358-7.5 7.5s3.358 7.5 7.5 7.5h57.611v156.829c0 1.381.382 2.735 1.103 3.914l40.625 66.411h-191.138l40.625-66.411c.721-1.178 1.102-2.532 1.102-3.914v-59.169c0-4.142-3.358-7.5-7.5-7.5s-7.5 3.358-7.5 7.5v57.057l-110.258 180.245c-16.325 26.687-16.938 58.912-1.642 86.201s43.106 43.581 74.391 43.581h212.703c31.284 0 59.094-16.292 74.391-43.582s14.682-59.514-1.643-86.2z"/><path d="m230.964 189.134h43.644c4.143 0 7.5-3.358 7.5-7.5s-3.357-7.5-7.5-7.5h-43.644c-4.142 0-7.5 3.358-7.5 7.5s3.358 7.5 7.5 7.5z"/><path d="m230.964 222.56h27.01c4.143 0 7.5-3.358 7.5-7.5s-3.357-7.5-7.5-7.5h-27.01c-4.142 0-7.5 3.358-7.5 7.5s3.358 7.5 7.5 7.5z"/><path d="m230.964 255.985h27.01c4.143 0 7.5-3.358 7.5-7.5s-3.357-7.5-7.5-7.5h-27.01c-4.142 0-7.5 3.358-7.5 7.5s3.358 7.5 7.5 7.5z"/><path d="m274.608 307.835h-43.644c-4.142 0-7.5 3.358-7.5 7.5s3.358 7.5 7.5 7.5h43.644c4.143 0 7.5-3.358 7.5-7.5s-3.358-7.5-7.5-7.5z"/><path d="m230.964 456.537h43.644c4.143 0 7.5-3.358 7.5-7.5s-3.357-7.5-7.5-7.5h-43.644c-4.142 0-7.5 3.358-7.5 7.5s3.358 7.5 7.5 7.5z"/><path d="m230.964 356.261h27.01c4.143 0 7.5-3.358 7.5-7.5s-3.357-7.5-7.5-7.5h-27.01c-4.142 0-7.5 3.358-7.5 7.5s3.358 7.5 7.5 7.5z"/><path d="m230.964 389.686h27.01c4.143 0 7.5-3.358 7.5-7.5s-3.357-7.5-7.5-7.5h-27.01c-4.142 0-7.5 3.358-7.5 7.5s3.358 7.5 7.5 7.5z"/><path d="m230.964 423.111h27.01c4.143 0 7.5-3.358 7.5-7.5s-3.357-7.5-7.5-7.5h-27.01c-4.142 0-7.5 3.358-7.5 7.5s3.358 7.5 7.5 7.5z"/></g></g></svg>